<svg width="189" height="136" xmlns="http://www.w3.org/2000/svg" xmlns:xlink="http://www.w3.org/1999/xlink" overflow="hidden"><defs><clipPath id="clip0"><rect x="418" y="585" width="189" height="136"/></clipPath><clipPath id="clip1"><path d="M521.49 677.362 542.122 694.467 525.016 715.099 504.385 697.993Z" fill-rule="evenodd" clip-rule="evenodd"/></clipPath><clipPath id="clip2"><path d="M521.49 677.362 542.122 694.467 525.016 715.099 504.385 697.993Z" fill-rule="evenodd" clip-rule="evenodd"/></clipPath><clipPath id="clip3"><path d="M521.49 677.362 542.122 694.467 525.016 715.099 504.385 697.993Z" fill-rule="evenodd" clip-rule="evenodd"/></clipPath><clipPath id="clip4"><path d="M485.505 647.528 506.136 664.633 489.031 685.264 468.4 668.159Z" fill-rule="evenodd" clip-rule="evenodd"/></clipPath><clipPath id="clip5"><path d="M485.505 647.528 506.136 664.633 489.031 685.264 468.4 668.159Z" fill-rule="evenodd" clip-rule="evenodd"/></clipPath><clipPath id="clip6"><path d="M485.505 647.528 506.136 664.633 489.031 685.264 468.4 668.159Z" fill-rule="evenodd" clip-rule="evenodd"/></clipPath><clipPath id="clip7"><path d="M449.52 617.693 470.151 634.799 453.046 655.43 432.415 638.325Z" fill-rule="evenodd" clip-rule="evenodd"/></clipPath><clipPath id="clip8"><path d="M449.52 617.693 470.151 634.799 453.046 655.43 432.415 638.325Z" fill-rule="evenodd" clip-rule="evenodd"/></clipPath><clipPath id="clip9"><path d="M449.52 617.693 470.151 634.799 453.046 655.43 432.415 638.325Z" fill-rule="evenodd" clip-rule="evenodd"/></clipPath></defs><g clip-path="url(#clip0)" transform="translate(-418 -585)"><path d="M418 720 418 586 606 720Z" fill="#003B73" fill-rule="evenodd"/><g clip-path="url(#clip1)"><g clip-path="url(#clip2)"><g clip-path="url(#clip3)"><path d="M535.513 702.438 528.425 695.73 531.482 686.297 522.778 691.049 514.881 685.333 516.581 694.972 508.563 700.807 518.398 702.078 521.469 711.507 525.718 702.546Z" fill="#FFFFFF"/></g></g></g><g clip-path="url(#clip4)"><g clip-path="url(#clip5)"><g clip-path="url(#clip6)"><path d="M499.528 672.604 492.44 665.896 495.497 656.462 486.793 661.214 478.896 655.499 480.596 665.138 472.578 670.973 482.413 672.244 485.484 681.673 489.733 672.712Z" fill="#FFFFFF"/></g></g></g><g clip-path="url(#clip7)"><g clip-path="url(#clip8)"><g clip-path="url(#clip9)"><path d="M463.543 642.77 456.455 636.062 459.512 626.628 450.808 631.38 442.911 625.665 444.611 635.303 436.593 641.139 446.428 642.41 449.499 651.839 453.748 642.878Z" fill="#FFFFFF"/></g></g></g><path d="M418 720 418 637 596 720Z" fill="#E20A17" fill-rule="evenodd"/></g></svg>