<svg width="494" height="434" xmlns="http://www.w3.org/2000/svg" xmlns:xlink="http://www.w3.org/1999/xlink" overflow="hidden"><defs><clipPath id="clip0"><rect x="-581" y="-95" width="494" height="434"/></clipPath><clipPath id="clip1"><rect x="-326" y="-15" width="29" height="29"/></clipPath><clipPath id="clip2"><rect x="-326" y="-15" width="29" height="29"/></clipPath><clipPath id="clip3"><rect x="-326" y="-15" width="29" height="29"/></clipPath></defs><g clip-path="url(#clip0)" transform="translate(581 95)"><rect x="-566" y="-89" width="445" height="386" fill="#FFFFFF"/><path d="M-329.996 53.3235-385 126.902-364.49 202.343-221.853 207-151 122.245-207.869 17-329.996 53.3235Z" fill="#E20A17" fill-rule="evenodd"/><path d="M-330.669-33.5056-353.627 40.5797-225.977 2.68927-330.669-33.5056Z" fill="#003B73" fill-rule="evenodd"/><g clip-path="url(#clip1)"><g clip-path="url(#clip2)"><g clip-path="url(#clip3)"><path d="M-297-3.79558-307.537-4.48835-311.506-14.458-315.474-4.48835-326-3.79558-317.927 3.05941-320.576 13.458-311.506 7.72478-302.436 13.458-305.085 3.05941Z" fill="#FFFFFF"/></g></g></g><text fill="#111214" font-family="Poppins,Poppins_MSFontService,sans-serif" font-weight="800" font-size="96" transform="translate(-522.871 23)">DID<tspan x="0" y="116">TRU</tspan><tspan fill="#FFFFFF" x="189.833" y="116">MP</tspan><tspan x="0" y="231">SAY</tspan></text></g></svg>