<svg width="236" height="167" xmlns="http://www.w3.org/2000/svg" xmlns:xlink="http://www.w3.org/1999/xlink" overflow="hidden"><defs><clipPath id="clip0"><rect x="626" y="-1" width="236" height="167"/></clipPath><clipPath id="clip1"><path d="M791.125 46.3383 814.998 59.4111 801.925 83.2841 778.052 70.2113Z" fill-rule="evenodd" clip-rule="evenodd"/></clipPath><clipPath id="clip2"><path d="M791.125 46.3383 814.998 59.4111 801.925 83.2841 778.052 70.2113Z" fill-rule="evenodd" clip-rule="evenodd"/></clipPath><clipPath id="clip3"><path d="M791.125 46.3383 814.998 59.4111 801.925 83.2841 778.052 70.2113Z" fill-rule="evenodd" clip-rule="evenodd"/></clipPath><clipPath id="clip4"><path d="M749.486 23.5371 773.359 36.6099 760.287 60.4829 736.414 47.4101Z" fill-rule="evenodd" clip-rule="evenodd"/></clipPath><clipPath id="clip5"><path d="M749.486 23.5371 773.359 36.6099 760.287 60.4829 736.414 47.4101Z" fill-rule="evenodd" clip-rule="evenodd"/></clipPath><clipPath id="clip6"><path d="M749.486 23.5371 773.359 36.6099 760.287 60.4829 736.414 47.4101Z" fill-rule="evenodd" clip-rule="evenodd"/></clipPath><clipPath id="clip7"><path d="M707.848 0.735985 731.721 13.8088 718.648 37.6818 694.775 24.609Z" fill-rule="evenodd" clip-rule="evenodd"/></clipPath><clipPath id="clip8"><path d="M707.848 0.735985 731.721 13.8088 718.648 37.6818 694.775 24.609Z" fill-rule="evenodd" clip-rule="evenodd"/></clipPath><clipPath id="clip9"><path d="M707.848 0.735985 731.721 13.8088 718.648 37.6818 694.775 24.609Z" fill-rule="evenodd" clip-rule="evenodd"/></clipPath></defs><g clip-path="url(#clip0)" transform="translate(-626 1)"><path d="M862 0 862 129 626 0Z" fill="#003B73" fill-rule="evenodd"/><g clip-path="url(#clip1)"><g clip-path="url(#clip2)"><g clip-path="url(#clip3)"><path d="M809.947 68.6346 801.585 63.3142 802.812 53.3183 795.051 59.7364 786.074 55.5618 789.63 64.8442 782.761 72.2102 792.813 71.5793 797.695 80.3876 800.202 70.6332Z" fill="#FFFFFF"/></g></g></g><g clip-path="url(#clip4)"><g clip-path="url(#clip5)"><g clip-path="url(#clip6)"><path d="M768.309 45.8335 759.946 40.5131 761.174 30.5171 753.413 36.9353 744.436 32.7607 747.991 42.043 741.123 49.409 751.174 48.7781 756.056 57.5865 758.563 47.8321Z" fill="#FFFFFF"/></g></g></g><g clip-path="url(#clip7)"><g clip-path="url(#clip8)"><g clip-path="url(#clip9)"><path d="M726.67 23.0323 718.308 17.7119 719.535 7.71595 711.774 14.1341 702.797 9.95953 706.353 19.2419 699.485 26.6079 709.536 25.977 714.418 34.7853 716.925 25.0309Z" fill="#FFFFFF"/></g></g></g><path d="M862 1.52588e-05 862 166 743 1.52588e-05Z" fill="#E20A17" fill-rule="evenodd"/></g></svg>