<?xml version="1.0" standalone="no"?>
<!DOCTYPE svg PUBLIC "-//W3C//DTD SVG 20010904//EN"
 "http://www.w3.org/TR/2001/REC-SVG-20010904/DTD/svg10.dtd">
<svg version="1.0" xmlns="http://www.w3.org/2000/svg"
 width="988.000000pt" height="988.000000pt" viewBox="0 0 988.000000 988.000000"
 preserveAspectRatio="xMidYMid meet">
<metadata>
Created by potrace 1.11, written by Peter Selinger 2001-2013
</metadata>
<g transform="translate(0.000000,988.000000) scale(0.100000,-0.100000)"
fill="#000000" stroke="none">
<path d="M360 9162 c-58 -4 -68 -18 -60 -82 4 -28 3 -53 -1 -56 -5 -3 -4 -16
1 -29 6 -15 6 -27 0 -30 -5 -3 -7 -12 -4 -19 7 -18 10 -406 3 -406 -3 0 -3
-19 1 -42 3 -24 4 -53 0 -66 -3 -12 -3 -67 0 -122 3 -55 3 -110 0 -122 -3 -12
-3 -46 0 -75 3 -29 4 -53 1 -53 -4 0 -4 -108 -1 -240 3 -132 2 -240 -1 -240
-3 0 -3 -19 1 -42 3 -24 4 -53 0 -66 -3 -12 -3 -67 0 -122 3 -55 3 -110 0
-122 -3 -12 -3 -46 0 -75 3 -29 4 -53 1 -53 -4 0 -4 -108 -1 -240 3 -132 2
-240 -1 -240 -3 0 -3 -19 1 -42 3 -24 4 -53 0 -66 -3 -12 -3 -67 0 -122 3 -55
3 -110 0 -122 -3 -12 -3 -46 0 -75 3 -29 4 -53 1 -53 -4 0 -4 -108 -1 -240 3
-132 2 -240 -1 -240 -3 0 -3 -19 1 -42 3 -24 4 -53 0 -66 -3 -12 -3 -67 0
-122 3 -55 3 -110 0 -122 -3 -12 -3 -46 0 -75 3 -29 4 -53 1 -53 -4 0 -4 -108
-1 -240 3 -132 2 -240 -1 -240 -3 0 -3 -19 1 -42 3 -24 4 -53 0 -66 -3 -12 -3
-67 0 -122 3 -55 3 -110 0 -122 -3 -12 -3 -46 0 -75 3 -29 4 -53 1 -53 -4 0
-4 -108 -1 -240 3 -132 2 -240 -1 -240 -3 0 -3 -19 1 -43 3 -23 4 -52 0 -65
-3 -12 -3 -67 0 -122 3 -55 3 -110 0 -122 -3 -12 -3 -46 0 -75 3 -29 4 -53 1
-53 -4 0 -4 -108 -1 -240 3 -132 2 -240 -1 -240 -3 0 -3 -19 1 -43 3 -23 4
-52 0 -65 -3 -12 -3 -67 0 -122 3 -55 3 -110 0 -122 -3 -12 -3 -46 0 -75 3
-29 4 -53 1 -53 -4 0 -4 -108 -1 -240 3 -132 2 -240 -1 -240 -3 0 -3 -19 1
-43 3 -23 4 -52 0 -65 -3 -12 -3 -74 0 -137 3 -63 1 -115 -3 -115 -5 0 -5 -5
-2 -10 4 -6 18 -10 33 -9 15 0 83 1 152 0 69 0 132 0 140 0 8 0 58 0 110 -1
116 -1 459 -2 480 -1 8 0 29 1 45 0 44 0 43 0 240 0 99 0 187 0 195 0 13 1 49
1 85 0 23 -1 396 1 468 2 17 0 88 0 157 0 69 0 141 0 160 0 19 0 91 0 160 0
69 0 141 0 160 0 19 0 91 0 160 0 69 0 132 0 140 0 8 0 58 0 110 -1 116 -1
459 -2 480 -1 8 0 29 1 45 0 44 0 43 0 240 0 99 0 187 0 195 0 13 1 49 1 85 0
23 -1 396 1 468 2 17 0 88 0 157 0 69 0 141 0 160 0 19 0 91 0 160 0 69 0 141
0 160 0 19 0 91 0 160 0 69 0 132 0 140 0 8 0 58 0 110 -1 116 -1 459 -2 480
-1 8 0 29 1 45 0 44 0 43 0 240 0 99 0 187 0 195 0 13 1 49 1 85 0 23 -1 396
1 468 2 17 0 88 0 157 0 69 0 141 0 160 0 19 0 91 0 160 0 69 0 141 0 160 0
19 0 91 0 160 0 69 0 132 0 140 0 8 0 58 0 110 -1 116 -1 459 -2 480 -1 45 2
67 2 75 1 6 -2 61 -2 123 -1 l112 1 0 27 c0 16 0 36 0 46 0 9 0 33 0 52 0 19
0 57 1 84 1 27 -1 53 -5 59 -3 6 -2 13 4 17 6 4 7 11 4 17 -4 6 -7 30 -6 52 1
23 3 59 4 82 1 22 -1 45 -5 50 -3 5 -2 16 3 24 4 7 4 24 0 36 -6 14 -5 26 0
29 6 4 7 13 1 24 -6 10 -6 23 -1 31 5 8 5 21 0 30 -5 9 -4 23 1 32 5 10 5 19
0 22 -4 3 -5 23 -1 45 4 22 4 45 -1 52 -4 7 -4 20 1 30 5 9 7 19 3 22 -3 4 -5
27 -4 52 0 25 2 67 2 94 1 27 -1 53 -5 59 -3 6 -2 13 4 17 6 4 7 11 4 17 -4 6
-7 31 -6 55 1 24 3 63 4 88 1 25 -2 48 -5 51 -3 4 -2 14 3 23 5 10 5 23 1 30
-5 7 -5 29 -1 50 4 21 3 47 -1 59 -5 12 -4 24 1 27 5 3 6 16 1 28 -4 12 -4 36
-1 52 3 17 3 40 -1 52 -5 12 -4 25 1 28 5 3 6 15 1 27 -4 12 -5 36 -1 54 4 18
4 38 -1 45 -4 7 -4 20 1 30 5 9 7 19 3 22 -3 4 -5 27 -4 52 0 25 2 67 2 94 1
27 -1 53 -5 59 -3 6 -2 13 4 17 6 4 7 11 4 17 -4 6 -7 30 -6 52 5 118 5 137
-1 142 -3 4 -2 14 3 23 5 10 5 23 1 30 -5 7 -5 29 -1 50 4 21 3 47 -1 59 -5
12 -4 24 1 27 5 3 6 16 1 28 -4 12 -4 36 -1 52 3 17 3 40 -1 52 -5 12 -4 25 1
28 5 3 6 15 1 27 -4 12 -5 36 -1 54 4 18 4 38 -1 45 -4 7 -4 20 1 30 5 9 7 19
3 22 -3 4 -5 27 -4 52 0 25 2 67 2 94 1 27 -1 53 -5 59 -3 6 -2 13 4 17 6 4 7
11 4 17 -4 6 -7 31 -6 55 1 24 3 63 4 88 1 25 -2 48 -5 51 -3 4 -2 14 3 24 5
10 7 20 3 23 -3 4 -5 27 -4 52 0 25 2 67 2 94 1 27 -1 53 -5 59 -3 6 -2 13 4
17 6 4 7 11 4 17 -4 6 -7 30 -6 52 1 23 3 59 4 82 1 22 -1 45 -5 50 -3 5 -2
16 3 24 4 7 4 24 0 36 -6 14 -5 26 0 29 6 4 7 13 1 24 -6 10 -6 23 -1 31 5 8
5 21 0 30 -5 9 -5 22 0 30 5 8 6 19 3 24 -4 5 -6 28 -5 50 5 98 4 134 -2 144
-3 6 -2 13 4 17 6 4 7 11 4 17 -4 6 -7 30 -6 52 1 23 3 59 4 82 1 22 -1 45 -5
50 -3 5 -2 16 3 24 4 7 4 24 0 36 -6 14 -5 26 0 29 6 4 7 13 1 24 -6 10 -6 23
-1 31 5 8 5 21 0 30 -5 9 -4 23 1 32 5 10 5 19 0 22 -4 3 -5 23 -1 45 4 22 4
45 -1 52 -4 7 -4 20 1 30 5 9 7 19 3 22 -3 4 -5 27 -4 52 0 25 2 67 2 94 1 27
-1 53 -5 59 -3 6 -2 13 4 17 6 4 7 11 4 17 -4 6 -7 31 -6 55 1 24 3 63 4 88 1
25 -2 48 -5 51 -3 4 -2 14 3 23 5 10 5 23 1 30 -5 7 -5 29 -1 50 4 21 3 47 -1
59 -5 12 -4 24 1 27 5 3 6 16 1 28 -4 12 -4 36 -1 52 3 17 3 40 -1 52 -5 12
-4 25 1 28 5 3 6 15 1 27 -4 12 -5 36 -1 54 4 18 4 38 -1 45 -4 7 -4 20 1 30
5 9 7 19 3 22 -3 4 -5 27 -4 52 0 25 2 67 2 94 1 27 -1 53 -5 59 -3 6 -2 13 4
17 6 4 7 11 4 17 -4 6 -7 31 -6 55 1 24 3 63 4 88 1 25 -2 48 -5 51 -3 4 -2
14 3 23 5 10 5 23 1 30 -5 7 -5 29 -1 50 4 21 3 47 -1 59 -5 12 -4 24 1 27 5
3 6 16 1 28 -4 12 -4 36 -1 52 3 17 3 40 -1 52 -5 12 -4 25 1 28 5 3 6 15 1
27 -4 12 -5 36 -1 54 4 18 4 38 -1 45 -4 7 -4 20 1 30 5 9 7 19 3 22 -3 4 -5
27 -4 52 0 25 2 67 2 94 1 27 -1 53 -5 59 -3 6 -2 13 4 17 6 4 7 11 4 17 -4 6
-7 31 -6 55 1 24 3 63 4 88 1 25 -2 48 -5 51 -3 4 -2 14 3 24 5 10 7 20 3 23
-3 4 -5 27 -4 52 0 25 2 67 2 94 1 27 -1 53 -5 59 -3 6 -2 13 4 17 6 4 7 11 4
17 -4 6 -7 30 -6 52 1 23 3 59 4 82 1 22 -1 45 -5 50 -3 5 -2 16 3 24 4 7 4
23 0 36 -5 12 -6 25 -3 28 10 9 10 56 0 56 -4 0 -5 5 -2 10 8 13 -4 52 -14 46
-6 -4 -74 -7 -121 -5 -13 0 -91 0 -190 -1 -19 0 -44 -1 -55 -3 -11 -2 -34 -1
-52 4 -18 4 -35 3 -38 -1 -3 -4 -20 -5 -37 -1 -18 4 -44 5 -58 4 -14 -2 -46
-3 -72 -3 -27 0 -55 0 -63 0 -8 0 -22 0 -30 0 -8 0 -36 0 -62 0 -27 0 -59 -1
-73 -3 -14 -1 -39 0 -56 4 -18 3 -38 3 -44 -1 -7 -4 -26 -4 -41 0 -16 5 -31 5
-34 0 -2 -4 -19 -5 -36 -1 -17 3 -62 4 -100 1 -38 -3 -76 -3 -84 0 -8 3 -50 3
-95 0 -44 -3 -80 -2 -80 1 0 3 -19 3 -42 -1 -24 -3 -58 -3 -76 1 -18 4 -34 3
-37 -1 -3 -4 -20 -5 -37 -1 -18 4 -44 5 -58 4 -14 -2 -46 -3 -72 -3 -27 0 -55
0 -63 0 -8 0 -22 0 -30 0 -8 0 -36 0 -62 0 -27 1 -57 -1 -68 -3 -11 -2 -34 -1
-52 4 -18 4 -35 3 -38 -1 -3 -4 -21 -4 -40 0 -19 4 -37 4 -40 0 -3 -4 -21 -4
-40 0 -19 4 -37 4 -40 0 -3 -4 -20 -5 -37 -1 -18 4 -44 5 -58 4 -14 -2 -46 -3
-72 -3 -27 0 -55 0 -63 0 -8 0 -22 0 -30 0 -8 0 -36 0 -62 0 -27 1 -57 -1 -68
-3 -11 -2 -34 -1 -52 4 -18 4 -35 3 -38 -1 -3 -4 -20 -4 -39 0 -19 4 -39 4
-46 0 -7 -4 -27 -4 -45 0 -18 4 -39 4 -45 0 -7 -4 -26 -4 -41 0 -16 5 -31 5
-34 0 -2 -4 -19 -5 -36 -1 -17 3 -62 4 -100 1 -38 -3 -76 -3 -84 0 -8 3 -50 3
-95 0 -44 -3 -80 -3 -80 0 0 3 -26 4 -57 2 -32 -1 -79 -2 -105 -2 -27 0 -55 0
-63 0 -8 0 -22 0 -30 0 -8 0 -36 0 -62 0 -27 1 -57 -1 -68 -3 -11 -2 -34 -1
-52 4 -18 4 -35 3 -38 -1 -3 -4 -20 -5 -37 -1 -18 4 -44 5 -58 4 -14 -2 -46
-3 -72 -3 -27 0 -55 0 -63 0 -8 0 -22 0 -30 0 -8 0 -36 0 -62 0 -27 1 -57 -1
-68 -3 -11 -2 -34 -1 -52 4 -18 4 -35 3 -38 -1 -3 -4 -20 -5 -37 -1 -18 4 -44
5 -58 4 -14 -2 -46 -3 -72 -3 -27 0 -55 0 -63 0 -8 0 -22 0 -30 0 -8 0 -36 0
-62 0 -27 0 -59 -1 -73 -3 -14 -1 -39 0 -56 4 -18 3 -38 3 -44 -1 -7 -4 -26
-4 -41 0 -16 5 -31 5 -34 0 -2 -4 -19 -5 -36 -1 -17 3 -62 4 -100 1 -38 -3
-76 -3 -84 0 -8 3 -50 3 -95 0 -44 -3 -80 -2 -80 1 0 3 -19 3 -42 -1 -24 -3
-58 -3 -76 1 -18 4 -34 3 -37 -1 -3 -4 -20 -5 -37 -1 -18 4 -44 5 -58 4 -14
-2 -46 -3 -72 -3 -27 0 -55 0 -63 0 -8 0 -22 0 -30 0 -8 0 -36 0 -62 0 -27 1
-57 -1 -68 -3 -11 -2 -34 -1 -52 4 -18 4 -35 3 -38 -1 -3 -4 -21 -4 -40 0 -19
4 -37 4 -40 0 -3 -4 -21 -4 -40 0 -19 4 -37 4 -40 0 -3 -4 -20 -5 -37 -1 -18
4 -44 5 -58 4 -14 -2 -46 -3 -72 -3 -27 0 -55 0 -63 0 -8 0 -22 0 -30 0 -8 0
-36 0 -62 0 -27 1 -57 -1 -68 -3 -11 -2 -34 -1 -52 4 -18 4 -35 3 -38 -1 -3
-4 -20 -4 -39 0 -19 4 -39 4 -46 0 -7 -4 -27 -4 -45 0 -18 4 -39 4 -45 0 -7
-4 -26 -4 -41 0 -16 5 -31 5 -34 0 -2 -4 -19 -5 -36 -1 -17 3 -62 4 -100 1
-38 -3 -76 -3 -84 0 -8 3 -50 3 -95 0 -44 -3 -80 -3 -80 0 0 3 -26 4 -57 2
-32 -1 -79 -2 -105 -2 -27 0 -55 0 -63 0 -8 0 -22 0 -30 0 -8 0 -36 0 -62 0
-27 1 -57 -1 -68 -3 -11 -2 -34 -1 -52 4 -18 4 -35 3 -38 -1 -3 -4 -20 -5 -37
-1 -18 4 -44 5 -58 4 -14 -2 -46 -3 -72 -3 -27 0 -55 0 -63 0 -8 0 -22 0 -30
0 -8 0 -36 0 -62 0 -27 1 -57 -1 -68 -3 -11 -2 -34 -1 -52 4 -18 4 -35 3 -38
-1 -3 -4 -20 -5 -37 -1 -18 4 -44 5 -58 4 -14 -2 -46 -3 -72 -3 -27 0 -55 0
-63 0 -8 0 -22 0 -30 0 -8 0 -36 0 -62 0 -27 0 -59 -1 -73 -3 -14 -1 -39 0
-56 4 -18 3 -38 3 -44 -1 -7 -4 -26 -4 -41 0 -16 5 -31 5 -34 0 -3 -4 -20 -5
-37 -1 -18 3 -53 5 -78 3z"/>
</g>
</svg>
